<?xml version="1.0" standalone="no"?>
<!DOCTYPE svg PUBLIC "-//W3C//DTD SVG 20010904//EN"
 "http://www.w3.org/TR/2001/REC-SVG-20010904/DTD/svg10.dtd">
<svg version="1.0" xmlns="http://www.w3.org/2000/svg"
 width="700.000000pt" height="700.000000pt" viewBox="0 0 700.000000 700.000000"
 preserveAspectRatio="xMidYMid meet">
<metadata>
Created by potrace 1.14, written by Peter Selinger 2001-2017
</metadata>
<g transform="translate(0.000000,700.000000) scale(0.100000,-0.100000)"
fill="#000000" stroke="none">
<path d="M2395 5537 c-66 -32 -110 -83 -130 -154 -40 -136 -69 -210 -122 -306
-31 -56 -101 -183 -155 -282 -198 -360 -250 -486 -283 -690 -26 -158 -16 -272
31 -340 l24 -36 -55 -152 c-54 -150 -56 -160 -150 -727 l-96 -575 -194 -292
c-203 -306 -214 -328 -185 -384 28 -52 -120 -49 2420 -49 2077 0 2354 2 2380
15 37 19 50 43 50 94 0 38 -9 49 -324 378 l-325 338 -70 188 -71 187 -25 298
c-14 163 -32 360 -40 437 l-16 140 -96 195 -96 195 -1 85 c-1 107 -10 124
-219 441 -203 308 -254 354 -364 335 -30 -6 -55 -25 -123 -94 -162 -165 -217
-304 -175 -437 4 -15 -5 -35 -34 -72 -23 -28 -41 -54 -41 -58 0 -15 -62 -85
-71 -79 -20 12 -70 128 -93 213 -52 195 -134 335 -310 529 -88 98 -184 180
-281 241 -153 96 -202 132 -255 188 -127 133 -176 175 -247 210 -98 48 -185
55 -258 20z m173 -203 c35 -17 78 -55 134 -116 88 -96 194 -181 298 -241 144
-81 314 -242 422 -401 52 -75 112 -205 128 -276 18 -79 56 -176 90 -232 l30
-48 -58 0 c-125 0 -206 -55 -254 -170 -141 -345 -180 -436 -191 -447 -46 -46
-279 135 -307 238 -16 58 -7 142 26 232 40 113 41 138 6 178 -41 46 -94 47
-149 3 -21 -16 -70 -51 -110 -77 -71 -47 -132 -113 -180 -194 -14 -24 -28 -43
-32 -43 -4 0 -20 26 -35 57 -41 83 -77 125 -138 158 -44 24 -68 30 -138 33
-82 4 -88 3 -154 -32 l-69 -36 7 71 c9 104 40 237 75 324 32 79 104 216 297
565 115 208 149 285 179 401 23 89 38 96 123 53z m1908 -900 c150 -228 183
-281 184 -298 0 -12 -115 1 -180 20 -46 14 -68 31 -181 145 -71 72 -129 135
-129 140 0 33 127 219 149 219 4 0 75 -102 157 -226z"/>
</g>
</svg>
